<svg xmlns="http://www.w3.org/2000/svg" viewBox="0 0 123.22 161.44"><defs><style>.cls-1{fill:#936c4e;fill-rule:evenodd;}.cls-2{fill:#3f2a1b;}</style></defs><g id="Camada_2" data-name="Camada 2"><g id="Camada_1-2" data-name="Camada 1"><path class="cls-1" d="M20.27,159.44a1.3,1.3,0,0,1-1.16-1.22c-1.3-8.87-7.75-15.77-16-17.18A1.37,1.37,0,0,1,2,139.63V21.81A1.36,1.36,0,0,1,3.06,20.4C11.36,19,17.81,12.09,19.11,3.22A1.29,1.29,0,0,1,20.27,2H103a1.29,1.29,0,0,1,1.16,1.22c1.31,8.87,7.75,15.77,16,17.18a1.36,1.36,0,0,1,1.06,1.41V139.63a1.37,1.37,0,0,1-1.06,1.41c-8.3,1.41-14.74,8.31-16,17.18a1.3,1.3,0,0,1-1.16,1.22Z"/><path class="cls-2" d="M102.21,4c1.56,9.28,8.3,16.51,17,18.26V139.18c-8.71,1.75-15.45,9-17,18.26H21c-1.56-9.28-8.3-16.51-17-18.26V22.26c8.71-1.75,15.45-9,17-18.26h81.2M103,0H20.27a3.27,3.27,0,0,0-3.14,2.93c-1.17,8-7,14.24-14.41,15.5A3.36,3.36,0,0,0,0,21.81V139.63A3.36,3.36,0,0,0,2.72,143c7.4,1.26,13.24,7.54,14.41,15.5a3.27,3.27,0,0,0,3.14,2.93H103a3.27,3.27,0,0,0,3.14-2.93c1.17-8,7-14.24,14.41-15.5a3.36,3.36,0,0,0,2.72-3.38V21.81a3.36,3.36,0,0,0-2.72-3.38c-7.4-1.26-13.24-7.54-14.41-15.5A3.27,3.27,0,0,0,103,0Z"/></g></g></svg>